<svg xmlns="http://www.w3.org/2000/svg" width="12.865" height="14.035" viewBox="0 0 12.865 14.035"><defs><style>.a{fill:#fafafa;}</style></defs><g transform="translate(-21.331)"><g transform="translate(21.331)"><g transform="translate(0)"><path class="a" d="M30.336,60.455a.585.585,0,1,0-.468,1.072,5.262,5.262,0,1,1-4.21,0,.585.585,0,1,0-.469-1.072,6.433,6.433,0,1,0,5.147,0Z" transform="translate(-21.331 -58.751)"/><path class="a" d="M235.241,8.859c.323,0,.585-.361.585-.805V.805c0-.445-.262-.805-.585-.805s-.585.361-.585.805V8.053C234.656,8.5,234.918,8.859,235.241,8.859Z" transform="translate(-228.808)"/></g></g></g></svg>